<svg xmlns="http://www.w3.org/2000/svg" width="145" height="48" viewBox="0 0 145 48">
    <g fill="none" fill-rule="evenodd">
        <rect width="145" height="48" fill="#252525" rx="10"/>
        <path fill="#FFF" fill-rule="nonzero" d="M51.69 32.306h-5.784l-1.39 4.096h-2.449l5.478-15.154h2.546l5.478 15.154h-2.492l-1.387-4.096zm-5.185-1.89h4.584l-2.26-6.648h-.063l-2.261 6.648zm20.895.462c0 3.434-1.84 5.64-4.617 5.64-1.435.075-2.787-.676-3.48-1.933h-.053v5.472h-2.27V25.353h2.197v1.838h.042c.724-1.25 2.078-2 3.523-1.953 2.807 0 4.658 2.216 4.658 5.64zm-2.334 0c0-2.237-1.157-3.707-2.923-3.707-1.735 0-2.902 1.501-2.902 3.707 0 2.226 1.167 3.717 2.902 3.717 1.766 0 2.923-1.46 2.923-3.717zm14.51 0c0 3.434-1.84 5.64-4.616 5.64-1.436.075-2.788-.676-3.481-1.933h-.053v5.472h-2.27V25.353h2.197v1.838h.042c.725-1.25 2.078-2 3.523-1.953 2.808 0 4.658 2.216 4.658 5.64zm-2.334 0c0-2.237-1.157-3.707-2.923-3.707-1.735 0-2.902 1.501-2.902 3.707 0 2.226 1.167 3.717 2.902 3.717 1.766 0 2.923-1.46 2.923-3.717zm10.382 1.302c.168 1.502 1.63 2.49 3.627 2.49 1.914 0 3.291-.988 3.291-2.343 0-1.176-.83-1.88-2.797-2.363l-1.966-.473c-2.786-.672-4.08-1.973-4.08-4.085 0-2.615 2.282-4.41 5.521-4.41 3.207 0 5.405 1.795 5.479 4.41h-2.293c-.137-1.513-1.389-2.425-3.218-2.425-1.83 0-3.081.923-3.081 2.267 0 1.072.8 1.702 2.755 2.185l1.672.41c3.113.735 4.407 1.984 4.407 4.2 0 2.836-2.261 4.612-5.858 4.612-3.365 0-5.637-1.734-5.784-4.475h2.325zm14.218-9.441v2.614h2.103v1.796h-2.103v6.091c0 .947.42 1.388 1.346 1.388.25-.005.499-.022.747-.053v1.785c-.416.078-.839.113-1.262.105-2.24 0-3.113-.84-3.113-2.983V27.15h-1.608v-1.796h1.608V22.74h2.282zm3.322 8.14c0-3.477 2.05-5.661 5.247-5.661 3.207 0 5.248 2.184 5.248 5.66 0 3.486-2.03 5.661-5.248 5.661-3.218 0-5.247-2.175-5.247-5.66zm8.18 0c0-2.385-1.093-3.793-2.933-3.793-1.84 0-2.934 1.418-2.934 3.792 0 2.395 1.093 3.791 2.934 3.791 1.84 0 2.934-1.396 2.934-3.79zm4.187-5.526h2.166v1.881h.052c.302-1.21 1.413-2.044 2.661-1.996.262-.001.523.027.778.084v2.122c-.33-.101-.675-.147-1.02-.137-.668-.027-1.314.238-1.769.727-.455.489-.673 1.152-.597 1.815v6.553h-2.271V25.353zm16.127 7.804c-.306 2.006-2.261 3.382-4.764 3.382-3.218 0-5.216-2.153-5.216-5.608 0-3.466 2.009-5.713 5.12-5.713 3.062 0 4.986 2.1 4.986 5.45v.776h-7.813v.137c-.073.823.211 1.637.78 2.236.57.599 1.37.924 2.196.894 1.102.103 2.14-.529 2.555-1.554h2.156zm-7.677-3.298h5.531c.041-.739-.228-1.462-.743-1.994s-1.23-.826-1.97-.81c-.747-.004-1.465.29-1.994.816-.529.527-.825 1.242-.824 1.988zM46.22 9.841c.964-.069 1.908.297 2.573.998.665.701.98 1.663.858 2.62 0 2.327-1.259 3.664-3.43 3.664h-2.634V9.84h2.633zm-1.5 6.252h1.374c.689.041 1.36-.23 1.826-.738.466-.508.679-1.199.578-1.88.093-.68-.122-1.365-.587-1.869-.466-.504-1.132-.774-1.817-.736h-1.375v5.223zm6.21-1.72c-.094-.985.379-1.938 1.22-2.46.842-.522 1.907-.522 2.75 0 .841.522 1.314 1.475 1.22 2.46.096.986-.377 1.94-1.22 2.464-.842.523-1.909.523-2.751 0-.843-.523-1.315-1.478-1.219-2.464zm4.073 0c0-1.191-.536-1.888-1.476-1.888-.944 0-1.475.697-1.475 1.888 0 1.2.53 1.892 1.475 1.892.94 0 1.476-.696 1.476-1.892zm8.015 2.75H61.89l-1.137-4.047h-.086l-1.132 4.047H58.42l-1.516-5.495h1.101l.986 4.193h.08l1.132-4.193h1.042l1.13 4.193h.087l.98-4.193h1.087l-1.511 5.495zm2.786-5.495h1.045v.873h.082c.282-.643.941-1.036 1.642-.98.542-.04 1.073.168 1.444.565.37.398.54.942.46 1.48v3.557h-1.086v-3.285c0-.883-.384-1.323-1.187-1.323-.368-.017-.725.127-.977.395-.253.268-.376.632-.337.998v3.215h-1.086v-5.495zm6.403-2.146h1.086v7.64h-1.086v-7.64zm2.596 4.89c-.095-.984.378-1.938 1.22-2.46.842-.521 1.907-.521 2.75 0 .841.522 1.314 1.476 1.22 2.46.096.987-.377 1.942-1.22 2.465-.842.522-1.909.522-2.751 0-.843-.523-1.315-1.478-1.22-2.464zm4.072 0c0-1.19-.536-1.887-1.476-1.887-.944 0-1.475.697-1.475 1.888 0 1.2.531 1.892 1.475 1.892.94 0 1.476-.696 1.476-1.892zm2.26 1.197c0-.99.738-1.56 2.047-1.64l1.49-.087v-.474c0-.58-.383-.908-1.126-.908-.606 0-1.026.222-1.146.61h-1.052c.111-.943 1-1.548 2.248-1.548 1.38 0 2.158.685 2.158 1.846v3.755h-1.045v-.773h-.086c-.355.564-.987.894-1.653.863-.467.049-.933-.102-1.282-.416-.35-.313-.55-.76-.552-1.228zm3.538-.47v-.46l-1.344.087c-.758.05-1.101.308-1.101.792 0 .495.43.782 1.02.782.35.036.699-.072.967-.299.269-.226.434-.552.458-.902zm2.508-.726c0-1.737.894-2.837 2.284-2.837.702-.032 1.36.344 1.687.964h.081V9.482h1.086v7.64h-1.04v-.868h-.086c-.353.616-1.018.985-1.728.96-1.4 0-2.284-1.1-2.284-2.841zm1.122 0c0 1.165.55 1.867 1.47 1.867.915 0 1.48-.712 1.48-1.862 0-1.146-.57-1.867-1.48-1.867-.914 0-1.47.706-1.47 1.862zm8.509 0c-.094-.985.378-1.938 1.22-2.46s1.907-.522 2.75 0c.84.522 1.314 1.475 1.22 2.46.096.986-.377 1.94-1.22 2.464-.842.523-1.909.523-2.751 0-.843-.523-1.315-1.478-1.22-2.464zm4.073 0c0-1.191-.536-1.888-1.477-1.888-.943 0-1.474.697-1.474 1.888 0 1.2.53 1.892 1.474 1.892.94 0 1.477-.696 1.477-1.892zm2.573-2.745h1.046v.873h.08c.283-.643.942-1.036 1.643-.98.542-.04 1.074.168 1.444.565.37.398.54.942.46 1.48v3.557h-1.086v-3.285c0-.883-.384-1.323-1.187-1.323-.368-.017-.725.127-.977.395-.253.268-.376.632-.337.998v3.215h-1.086v-5.495zm10.81-1.369v1.394h1.191v.913h-1.192v2.826c0 .575.238.827.778.827.139 0 .277-.008.414-.025v.904c-.195.034-.392.053-.59.055-1.208 0-1.689-.424-1.689-1.484v-3.103h-.873v-.913h.873v-1.394h1.087zm2.674-.777h1.077v3.029h.086c.295-.649.966-1.042 1.677-.985.54-.029 1.064.183 1.43.58.367.396.537.934.465 1.469v3.548h-1.087v-3.28c0-.878-.409-1.323-1.176-1.323-.378-.03-.75.106-1.017.375-.267.269-.402.641-.369 1.018v3.21h-1.086v-7.64zm11.067 6.157c-.305 1.036-1.309 1.706-2.384 1.59-.734.02-1.44-.285-1.929-.83-.489-.547-.713-1.28-.613-2.007-.098-.728.126-1.462.613-2.013.486-.551 1.188-.864 1.924-.857 1.53 0 2.454 1.044 2.454 2.77v.378h-3.885v.06c-.034.409.105.812.384 1.112.28.3.672.468 1.082.463.53.064 1.048-.2 1.309-.666h1.045zm-3.82-1.771h2.78c.027-.373-.104-.74-.362-1.011-.258-.271-.619-.421-.993-.412-.38-.005-.745.143-1.013.411-.268.268-.417.633-.412 1.012zM30.265 23.96c.027-2.07 1.114-3.982 2.88-5.067-1.12-1.596-2.927-2.572-4.877-2.633-2.052-.215-4.041 1.226-5.087 1.226-1.066 0-2.675-1.205-4.409-1.169-2.28.074-4.356 1.337-5.465 3.329-2.364 4.086-.6 10.092 1.663 13.395 1.132 1.617 2.456 3.424 4.188 3.36 1.695-.07 2.328-1.08 4.374-1.08 2.027 0 2.62 1.08 4.388 1.039 1.818-.03 2.964-1.625 4.057-3.257.814-1.153 1.44-2.427 1.855-3.774-2.16-.913-3.564-3.027-3.567-5.369zm-3.337-9.872c.991-1.189 1.48-2.717 1.361-4.26-1.515.159-2.914.882-3.919 2.025-.992 1.128-1.495 2.604-1.398 4.102 1.536.016 2.993-.672 3.956-1.867z"/>
    </g>
</svg>
