<svg width="164" height="48" viewBox="0 0 164 48" fill="none" xmlns="http://www.w3.org/2000/svg">
<path d="M154 0H10C4.47715 0 0 4.47715 0 10V38C0 43.5228 4.47715 48 10 48H154C159.523 48 164 43.5228 164 38V10C164 4.47715 159.523 0 154 0Z" fill="#252525"/>
<path d="M60.3811 32.09H54.5782L53.1375 35.97H50.5763L56.2591 21.45H58.6602L64.5031 35.97H61.8218L60.3811 32.09ZM55.2986 30.17H59.6607L58.1 26.05C57.8598 25.45 57.7398 24.85 57.4997 24.13C57.2596 24.73 57.1395 25.33 56.8994 26.05L55.2986 30.17Z" fill="white"/>
<path d="M65.5836 27.89C65.5836 27.01 65.5436 26.13 65.4636 25.21H67.7847C67.8647 25.65 67.9448 26.09 67.9047 26.53C68.7051 25.53 69.9057 24.97 71.1863 24.97C71.9067 25.01 72.627 25.21 73.2273 25.57C73.8677 25.97 74.3479 26.57 74.668 27.25C75.1083 28.21 75.3084 29.25 75.2683 30.29C75.2683 31.41 75.0682 32.53 74.668 33.57C74.2278 34.37 73.6275 35.09 72.8672 35.61C72.0668 36.09 71.1463 36.37 70.2259 36.33C69.4655 36.33 68.7452 36.21 68.0648 35.97V40.45L65.6637 40.69L65.5836 27.89ZM72.1068 33.33C72.587 32.61 72.8271 31.65 72.8271 30.29C72.8672 29.37 72.6671 28.45 72.2269 27.61C71.4265 26.81 70.1859 26.65 69.1854 27.25C68.7452 27.49 68.3049 27.81 67.9848 28.21V34.01C68.2249 34.17 68.5451 34.25 68.8252 34.25C69.1854 34.25 69.4255 34.37 69.7857 34.37C70.9062 34.41 71.6266 34.05 72.1068 33.33Z" fill="white"/>
<path d="M76.9492 27.89C76.9492 27.01 76.9091 26.13 76.8291 25.21H79.1102C79.1903 25.65 79.2703 26.09 79.2303 26.53C80.0307 25.53 81.2312 24.97 82.5119 24.97C83.2322 25.01 83.9526 25.21 84.5529 25.57C85.1932 25.97 85.6734 26.57 85.9936 27.25C86.4338 28.21 86.6339 29.25 86.5939 30.29C86.5939 31.41 86.3938 32.53 85.9936 33.57C85.5534 34.37 84.9531 35.09 84.1927 35.61C83.3923 36.09 82.4719 36.37 81.5514 36.33C80.791 36.33 80.0707 36.21 79.3903 35.97V40.45L76.9892 40.69L76.9492 27.89ZM83.5124 33.33C83.9926 32.61 84.2327 31.65 84.2327 30.29C84.2727 29.37 84.0726 28.45 83.6324 27.61C83.2322 27.09 82.5919 26.77 81.9516 26.77C81.4714 26.77 81.0311 26.89 80.631 27.13C80.1907 27.37 79.7505 27.69 79.4304 28.09V33.89C79.6705 34.05 79.9906 34.13 80.2708 34.13C80.631 34.13 80.8711 34.25 81.2312 34.25C82.3118 34.41 83.0321 34.05 83.5124 33.33Z" fill="white"/>
<path d="M91.4762 35.25C90.3957 34.69 89.5553 33.81 89.0351 32.69C88.4348 31.49 88.1546 30.17 88.1946 28.81C88.1546 27.37 88.5148 25.97 89.1551 24.69C89.7954 23.61 90.7159 22.73 91.8364 22.13C93.037 21.53 94.3577 21.25 95.7183 21.29C96.5187 21.33 97.3591 21.41 98.1595 21.53C98.9999 21.65 99.6002 22.01 100.321 22.25L99.7203 24.17C98.5597 23.57 97.2791 23.25 95.9584 23.21C95.038 23.21 94.1175 23.41 93.2771 23.81C92.5168 24.29 91.9165 24.97 91.4762 25.73C91.076 26.69 90.876 27.73 90.876 28.77C90.8359 29.73 90.996 30.69 91.3562 31.57C91.6763 32.37 92.2366 33.05 92.9169 33.49C93.7173 34.01 94.6378 34.25 95.5983 34.21C96.0785 34.25 96.5587 34.17 97.039 34.09C97.5192 33.97 97.9994 33.85 98.3596 33.73V30.81H94.998V28.89H100.801V34.93C99.9604 35.33 99.08 35.61 98.1195 35.77C97.2391 36.01 96.3586 36.13 95.4382 36.13C94.0775 36.25 92.7168 35.93 91.4762 35.25Z" fill="white"/>
<path d="M109.525 35.97C109.405 35.49 109.365 35.01 109.405 34.53C109.005 35.01 108.525 35.45 107.964 35.73C107.324 36.09 106.604 36.25 105.923 36.21C105.323 36.21 104.763 36.09 104.242 35.85C103.722 35.61 103.322 35.25 103.042 34.77C102.722 34.21 102.562 33.57 102.562 32.97C102.522 32.01 102.922 31.05 103.642 30.41C104.363 29.81 105.683 29.45 107.404 29.45C108.044 29.41 108.685 29.45 109.325 29.57V29.33C109.365 28.61 109.165 27.85 108.725 27.29C108.244 26.89 107.644 26.65 107.044 26.69C106.484 26.73 105.923 26.81 105.363 26.93C104.803 27.05 104.282 27.25 103.802 27.53L103.442 25.73C104.002 25.49 104.563 25.29 105.123 25.13C105.883 24.97 106.644 24.89 107.404 24.89C108.244 24.85 109.085 25.01 109.845 25.37C110.526 25.65 111.086 26.17 111.406 26.81C111.846 27.69 112.046 28.65 112.006 29.61V33.97C112.006 34.65 112.046 35.33 112.126 36.01L109.525 35.97ZM108.084 34.05C108.565 33.81 108.965 33.49 109.285 33.09V31.05C108.725 30.97 108.164 30.93 107.604 30.93C106.644 30.93 105.923 31.05 105.443 31.41C105.043 31.73 104.843 32.21 104.843 32.73C104.803 33.17 104.963 33.65 105.323 33.93C105.683 34.21 106.083 34.33 106.524 34.29C107.044 34.37 107.604 34.29 108.084 34.05Z" fill="white"/>
<path d="M113.887 33.45V20.61L116.328 20.37V32.97C116.328 33.29 116.408 33.65 116.568 33.93C116.689 34.17 116.929 34.17 117.289 34.17C117.489 34.17 117.689 34.13 117.889 34.05L118.129 35.85C117.849 35.93 117.569 36.01 117.289 36.09C116.929 36.09 116.689 36.21 116.328 36.21C114.728 36.21 113.887 35.25 113.887 33.45Z" fill="white"/>
<path d="M120.05 33.45V20.61L122.491 20.37V32.97C122.491 33.29 122.571 33.65 122.731 33.93C122.852 34.17 123.092 34.17 123.452 34.17C123.652 34.17 123.852 34.13 124.052 34.05L124.292 35.85C124.012 35.93 123.732 36.01 123.452 36.09C123.092 36.09 122.852 36.21 122.491 36.21C120.931 36.21 120.05 35.25 120.05 33.45Z" fill="white"/>
<path d="M134.697 30.89H127.694C127.814 33.17 128.894 34.29 130.976 34.29C131.496 34.25 132.016 34.17 132.536 34.05C133.057 33.93 133.617 33.77 134.097 33.57L134.577 35.25C133.297 35.85 131.896 36.13 130.455 36.09C129.455 36.09 128.454 35.89 127.534 35.49C126.773 35.05 126.173 34.41 125.733 33.69C125.333 32.77 125.133 31.77 125.133 30.77C125.133 29.73 125.333 28.69 125.733 27.73C126.053 26.89 126.733 26.17 127.534 25.81C129.095 24.85 131.056 24.85 132.616 25.81C133.337 26.29 133.857 26.97 134.177 27.73C134.537 28.57 134.697 29.49 134.657 30.41V30.89H134.697ZM132.296 29.33C132.336 28.65 132.096 27.97 131.696 27.41C131.336 26.93 130.855 26.81 130.135 26.81C129.535 26.81 128.975 27.01 128.574 27.41C128.134 27.97 127.854 28.65 127.734 29.33H132.296Z" fill="white"/>
<path d="M136.778 27.89C136.778 27.01 136.738 26.13 136.658 25.21H138.939C138.939 25.45 139.059 25.81 139.059 26.29C139.059 26.65 139.18 27.01 139.18 27.25C139.42 26.81 139.7 26.41 140.02 26.05C140.3 25.69 140.62 25.41 140.98 25.21C141.341 24.97 141.781 24.85 142.181 24.85C142.501 24.81 142.821 24.85 143.141 24.97L142.781 27.13C142.501 27.01 142.221 26.97 141.941 27.01C141.381 26.97 140.82 27.17 140.38 27.49C139.86 27.89 139.38 28.37 139.059 28.93V35.81H136.658V27.81H136.778V27.89Z" fill="white"/>
<path d="M144.782 40.45C144.502 40.37 144.222 40.29 143.942 40.21L144.422 38.41C144.622 38.45 144.822 38.49 145.022 38.53C145.262 38.53 145.503 38.65 145.743 38.65C146.823 38.65 147.664 37.93 148.184 36.61L148.304 36.25L144.302 25.37H146.983L149.024 31.41C149.264 32.21 149.505 33.01 149.625 33.81C149.865 33.09 149.985 32.25 150.225 31.53L152.266 25.37H154.827L150.825 36.25C150.545 37.17 150.145 38.01 149.625 38.81C149.184 39.37 148.664 39.89 148.064 40.25C147.384 40.61 146.623 40.77 145.903 40.73C145.503 40.53 145.142 40.45 144.782 40.45Z" fill="white"/>
<path d="M50.5763 8.30163H55.0585L54.9384 9.38163H51.8969V11.4216H54.8184V12.3816H51.8969V14.7016H55.0585L54.9384 15.7816H50.5763V8.30163Z" fill="white"/>
<path d="M58.1 12.0616L55.7788 8.30163H57.2195L58.7803 11.1016L60.4611 8.30163H61.9018L59.6207 11.9416L62.182 15.8216H60.7413L58.9404 12.7816L57.1395 15.8216H55.5787L58.1 12.0616Z" fill="white"/>
<path d="M65.1034 8.30163C65.8638 8.26163 66.6241 8.46163 67.2644 8.90163C67.7447 9.30163 68.0248 9.94163 67.9848 10.5816C67.9848 11.0616 67.8647 11.5016 67.6246 11.9016C67.3445 12.2616 67.0243 12.5416 66.6641 12.7416C66.304 12.9816 65.8237 12.9816 65.2234 12.9816C64.9033 12.9816 64.5831 12.9416 64.263 12.8616V15.7816H62.9423V8.30163H65.1034ZM66.304 11.7016C66.5841 11.4216 66.7042 11.0216 66.6641 10.6216C66.6641 10.1416 66.5441 9.78163 66.1839 9.66163C65.8237 9.38163 65.4235 9.26163 64.9833 9.30163H64.263V11.9816C64.5031 11.9816 64.7432 12.0216 64.9833 12.1016C65.7037 12.1816 66.0638 12.0616 66.304 11.7016Z" fill="white"/>
<path d="M69.3455 8.30163H70.6661V14.7016H73.8276L73.7076 15.9016H69.3455V8.30163Z" fill="white"/>
<path d="M75.7486 15.5416C75.1883 15.2616 74.7881 14.7816 74.548 14.2216C74.2278 13.5816 74.0678 12.8616 74.0678 12.1816C74.0277 11.4616 74.1878 10.7416 74.548 10.1416C74.8281 9.54163 75.3084 9.10163 75.8686 8.82163C76.5089 8.46163 77.2293 8.30163 77.9096 8.34163C78.59 8.30163 79.2703 8.46163 79.8306 8.82163C80.3908 9.10163 80.791 9.58163 81.0311 10.1416C81.3113 10.7416 81.4714 11.4216 81.5114 12.0616C81.5514 12.8216 81.3913 13.5816 81.0311 14.2216C80.751 14.8216 80.2708 15.2616 79.7105 15.5416C79.0702 15.9016 78.3899 16.0616 77.6695 16.0216C77.0292 16.0616 76.3489 15.9016 75.7486 15.5416ZM79.2703 14.5816C79.6305 14.3016 79.9106 13.9816 80.1107 13.6216C80.2308 13.1416 80.3108 12.6616 80.3508 12.1816C80.3508 11.7016 80.2708 11.1816 80.1107 10.7416C80.0307 10.3416 79.7505 9.98163 79.3904 9.78163C78.5499 9.30163 77.5495 9.30163 76.709 9.78163C76.3489 10.0616 76.0287 10.4216 75.8686 10.8616C75.6685 11.3016 75.5885 11.8216 75.6285 12.3016C75.6285 12.7816 75.7086 13.3016 75.8686 13.7416C76.0287 14.1816 76.3088 14.5016 76.709 14.7016C77.1092 14.9416 77.5895 15.0616 78.0297 15.0616C78.4699 14.9416 78.8701 14.7816 79.2703 14.5816Z" fill="white"/>
<path d="M83.1522 8.30163H85.5934C86.4338 8.30163 87.1541 8.42163 87.5143 8.78163C87.9945 9.10163 88.2747 9.66163 88.2347 10.2216C88.1946 10.5816 88.1146 10.9816 87.9945 11.3016C87.8745 11.6216 87.6744 11.9016 87.3943 12.0616C87.1942 12.2616 86.954 12.4216 86.6739 12.5416L88.955 15.9416H87.3943L85.4733 12.9016H84.5129V15.9416H83.1922V8.30163H83.1522ZM85.1932 11.9416C85.4733 11.9416 85.7935 11.8616 86.0336 11.7016C86.2737 11.6216 86.5138 11.4216 86.6339 11.2216C86.7539 10.9816 86.834 10.7416 86.874 10.5016C86.874 10.1816 86.7539 9.86163 86.5138 9.66163C86.1937 9.50163 85.7935 9.42163 85.4333 9.42163H84.4728V11.9816L85.1932 11.9416Z" fill="white"/>
<path d="M89.9155 8.30163H94.3977L94.2776 9.38163H91.2361V11.4216H94.1576V12.3816H91.2361V14.7016H94.3977L94.2776 15.9016H89.9155V8.30163Z" fill="white"/>
<path d="M99.24 8.30163H100.561V15.9416H99.24V8.30163Z" fill="white"/>
<path d="M103.962 9.50163H101.681L101.801 8.42163H107.724L107.604 9.50163H105.403V16.0216H103.962V9.50163Z" fill="white"/>
<path d="M113.407 15.5416C112.847 15.2616 112.446 14.7816 112.206 14.2216C111.886 13.5816 111.726 12.8616 111.726 12.1816C111.686 11.4616 111.846 10.7416 112.206 10.1416C112.486 9.54163 112.967 9.10163 113.527 8.82163C114.167 8.46163 114.888 8.30163 115.568 8.34163C116.248 8.30163 116.929 8.46163 117.489 8.82163C118.049 9.10163 118.449 9.58163 118.69 10.1416C118.97 10.7416 119.13 11.4216 119.17 12.0616C119.21 12.8216 119.05 13.5816 118.69 14.2216C118.409 14.8216 117.929 15.2616 117.369 15.5416C116.729 15.9016 116.048 16.0616 115.328 16.0216C114.648 16.1016 114.007 15.9016 113.407 15.5416ZM116.809 14.5816C117.169 14.3016 117.449 13.9816 117.649 13.6216C117.769 13.1416 117.889 12.6616 117.889 12.1816C117.889 11.7016 117.809 11.1816 117.649 10.7416C117.569 10.3416 117.289 9.98163 116.929 9.78163C116.088 9.30163 115.088 9.30163 114.247 9.78163C113.887 10.0616 113.567 10.4216 113.407 10.8616C113.207 11.3016 113.127 11.8216 113.167 12.3016C113.167 12.7816 113.247 13.3016 113.407 13.7416C113.567 14.1816 113.847 14.5016 114.247 14.7016C114.648 14.9416 115.128 15.0616 115.568 15.0616C116.008 14.9816 116.408 14.8216 116.809 14.5816Z" fill="white"/>
<path d="M120.69 8.30163H122.131L125.893 14.1016V8.30163H127.094V15.9416H125.653L121.891 10.0216V15.9416H120.69V8.30163Z" fill="white"/>
<path fill-rule="evenodd" clip-rule="evenodd" d="M32.1845 8H18.1377C11.6145 8 9.17328 10.4 9.17328 16.96V30.88C9.17328 37.4 11.6145 39.84 18.1377 39.84H32.0644C38.5876 39.84 41.0288 37.4 41.0288 30.88V16.96C41.1489 10.4 38.7077 8 32.1845 8Z" fill="#C8102E"/>
<path d="M15.4564 23.9599H16.2968V28.1999H15.4564V26.5199H13.6555V28.1999H12.8151V23.9599H13.6555V25.6399H15.5764V23.9599H15.4564ZM20.2987 26.3999C20.2987 27.1199 19.9385 27.4799 19.3382 27.4799C18.738 27.4799 18.3778 27.1199 18.3778 26.3999V23.9999H17.5374V26.3999C17.5374 27.5999 18.1377 28.1999 19.3382 28.1999C20.4188 28.1999 21.1391 27.4799 21.1391 26.2799V23.9999H20.2987V26.3999ZM30.1035 26.8799L29.143 23.9599H28.4227L27.4622 26.8799L26.6218 23.9599H25.7814L27.2221 28.1999H27.9424L28.9029 25.3999L29.8634 28.1999H30.5837L32.0244 23.9599H31.184L30.1035 26.8799ZM33.3851 26.3999H34.9459V25.6799H33.3851V24.7999H35.5462V23.9599H32.5047V28.0799H35.6662V27.3599H33.3851V26.3999ZM36.7868 28.0799H37.6272V23.9599H36.7868V28.0799ZM22.86 27.2399L22.4998 28.0799H21.6594L23.4603 23.9599H24.1806L25.9815 28.0799H25.1411L24.7809 27.2399H22.86ZM23.1001 26.5199H24.4207L23.8204 25.0799L23.1001 26.5199Z" fill="white"/>
<path d="M25.1411 18.6399C22.2197 18.5999 19.8585 16.2399 19.8185 13.3199H20.5388C20.4588 15.8399 22.4598 17.9599 25.021 18.0399C27.5823 18.1199 29.6633 16.1199 29.7433 13.5999C29.7433 13.5199 29.7433 13.4399 29.7433 13.3599H30.4637C30.4637 16.2399 28.1025 18.6399 25.1411 18.6399Z" fill="white"/>
</svg>
