<svg xmlns="http://www.w3.org/2000/svg" width="165" height="48" viewBox="0 0 165 48">
    <defs>
        <linearGradient id="prefix__a" x1="61.014%" x2="26.546%" y1="4.948%" y2="71.907%">
            <stop offset="0%" stop-color="#00A0FF"/>
            <stop offset="1%" stop-color="#00A1FF"/>
            <stop offset="26%" stop-color="#00BEFF"/>
            <stop offset="51%" stop-color="#00D2FF"/>
            <stop offset="76%" stop-color="#00DFFF"/>
            <stop offset="100%" stop-color="#00E3FF"/>
        </linearGradient>
        <linearGradient id="prefix__b" x1="107.685%" x2="-130.64%" y1="50%" y2="50%">
            <stop offset="0%" stop-color="#FFE000"/>
            <stop offset="41%" stop-color="#FFBD00"/>
            <stop offset="78%" stop-color="orange"/>
            <stop offset="100%" stop-color="#FF9C00"/>
        </linearGradient>
        <linearGradient id="prefix__c" x1="86.219%" x2="-50.15%" y1="30.876%" y2="136.147%">
            <stop offset="0%" stop-color="#FF3A44"/>
            <stop offset="100%" stop-color="#C31162"/>
        </linearGradient>
        <linearGradient id="prefix__d" x1="-18.754%" x2="42.121%" y1="-11.946%" y2="35.067%">
            <stop offset="0%" stop-color="#32A071"/>
            <stop offset="7%" stop-color="#2DA771"/>
            <stop offset="48%" stop-color="#15CF74"/>
            <stop offset="80%" stop-color="#06E775"/>
            <stop offset="100%" stop-color="#00F076"/>
        </linearGradient>
    </defs>
    <g fill="none" fill-rule="evenodd">
        <rect width="165" height="48" fill="#252525" rx="10"/>
        <path fill="#FFF" fill-rule="nonzero" d="M83.077 26.542c-2.858.014-5.166 2.342-5.157 5.203.009 2.861 2.331 5.175 5.19 5.17 2.858-.004 5.173-2.325 5.173-5.186.02-1.386-.523-2.72-1.504-3.698-.982-.978-2.317-1.515-3.702-1.489zm0 8.335c-1.288.09-2.5-.617-3.058-1.783-.556-1.167-.344-2.555.536-3.502.88-.947 2.248-1.259 3.45-.787 1.203.472 1.995 1.631 1.998 2.924.04.808-.248 1.599-.8 2.192-.55.593-1.317.938-2.126.956zm-11.35-8.335c-2.86.007-5.175 2.332-5.17 5.195.004 2.863 2.325 5.18 5.185 5.178 2.86-.002 5.178-2.323 5.178-5.186.02-1.386-.523-2.72-1.504-3.698-.982-.978-2.318-1.515-3.702-1.489h.012zm0 8.335c-1.29.096-2.506-.608-3.067-1.774-.56-1.166-.351-2.556.527-3.505.878-.95 2.248-1.264 3.452-.793 1.204.47 1.998 1.63 2.001 2.924.04.808-.249 1.599-.8 2.192-.55.593-1.317.938-2.126.956h.012zm-13.522-6.736v2.197h5.267c-.082 1.034-.512 2.01-1.219 2.77-1.066 1.086-2.54 1.671-4.06 1.61-3.232 0-5.852-2.622-5.852-5.857 0-3.235 2.62-5.858 5.852-5.858 1.485-.024 2.918.542 3.987 1.575l1.548-1.55c-1.457-1.477-3.45-2.3-5.523-2.282-2.952-.115-5.73 1.395-7.24 3.937-1.51 2.54-1.51 5.705 0 8.247 1.51 2.54 4.288 4.051 7.24 3.936 2.112.096 4.161-.727 5.62-2.257 1.278-1.405 1.96-3.251 1.903-5.15.004-.463-.037-.924-.122-1.379l-7.4.061zm55.243 1.708c-.651-1.916-2.417-3.232-4.438-3.307-1.348-.002-2.637.554-3.561 1.536-.924.983-1.4 2.304-1.316 3.65-.03 1.379.501 2.71 1.472 3.688.97.978 2.296 1.52 3.673 1.5 1.732.009 3.354-.853 4.316-2.295l-1.768-1.22c-.537.895-1.505 1.442-2.548 1.44-1.08.04-2.077-.583-2.512-1.575l6.938-2.867-.256-.55zm-7.072 1.733c-.05-.762.21-1.513.718-2.082.51-.57 1.226-.91 1.989-.944.804-.053 1.562.38 1.926 1.098l-4.633 1.928zm-5.633 5.028h2.28V21.356h-2.28V36.61zm-3.73-8.908h-.086c-.695-.778-1.688-1.222-2.73-1.22-2.768.134-4.943 2.419-4.943 5.192s2.175 5.058 4.942 5.192c1.046.018 2.046-.429 2.731-1.22H97v.745c0 1.989-1.06 3.05-2.767 3.05-1.163-.027-2.194-.755-2.61-1.842l-1.987.83c.766 1.863 2.584 3.075 4.597 3.063 2.67 0 4.877-1.575 4.877-5.407v-9.238h-2.097v.855zm-2.61 7.175c-1.63-.144-2.88-1.51-2.88-3.148 0-1.638 1.25-3.005 2.88-3.149.788.04 1.526.398 2.047.99.521.593.781 1.372.721 2.159.067.79-.192 1.575-.717 2.17-.525.594-1.27.948-2.063.978h.013zm29.725-13.521h-5.45V36.61h2.28v-5.784h3.182c1.771.127 3.465-.746 4.39-2.264.924-1.518.924-3.425 0-4.942-.925-1.518-2.619-2.391-4.39-2.264h-.012zm0 7.322h-3.182v-5.199h3.23c1.445 0 2.616 1.172 2.616 2.618s-1.17 2.618-2.615 2.618l-.049-.037zm14.057-2.197c-1.696-.101-3.29.814-4.06 2.331l2.024.842c.408-.752 1.221-1.192 2.073-1.122.585-.069 1.172.1 1.63.47.46.37.75.908.808 1.494v.159c-.732-.388-1.548-.59-2.377-.586-2.182 0-4.39 1.22-4.39 3.43.044.95.47 1.844 1.182 2.476.712.632 1.65.95 2.598.88 1.17.083 2.292-.478 2.927-1.465h.073v1.22h2.194v-5.87c0-2.672-2.024-4.222-4.62-4.222l-.062-.037zm-.28 8.36c-.744 0-1.78-.379-1.78-1.294 0-1.22 1.292-1.623 2.438-1.623.725-.018 1.44.16 2.073.513-.158 1.366-1.297 2.407-2.67 2.44l-.061-.036zm12.96-7.994l-2.609 6.615h-.073l-2.707-6.615h-2.438l4.06 9.25-2.317 5.138h2.378l6.242-14.388h-2.536zM130.37 36.61h2.28V21.356h-2.28V36.61z"/>
        <path fill="#FFF" fill-rule="nonzero" stroke="#FFF" stroke-width=".2" d="M57.815 12.496c.042.905-.289 1.787-.914 2.44-.7.728-1.675 1.123-2.683 1.087-1.545-.012-2.933-.95-3.521-2.38-.588-1.432-.262-3.076.827-4.173.708-.723 1.683-1.121 2.694-1.098.516-.002 1.026.102 1.5.305.441.178.834.458 1.146.817l-.646.647c-.494-.587-1.234-.908-2-.866-.77-.004-1.507.306-2.043.859-.536.552-.824 1.3-.797 2.07-.017 1.163.668 2.221 1.734 2.683 1.067.462 2.307.236 3.142-.572.376-.407.592-.936.61-1.49h-2.646v-.878h3.548c.033.181.05.365.049.55h0zm5.584-3.05h-3.292v2.318h3v.879h-3v2.318H63.4v.903h-4.267V8.542h4.267v.903zm3.999 6.418h-.939V9.445h-2.048v-.903h5.084v.903h-2.097v6.42zm5.682 0V8.542h.938v7.322h-.938zm5.108 0h-.939V9.445h-2.048v-.903h5.023v.903h-2.036v6.42zm11.558-.951c-1.484 1.476-3.88 1.476-5.364 0-1.439-1.524-1.439-3.907 0-5.431.71-.715 1.675-1.118 2.682-1.118s1.973.403 2.682 1.118c1.445 1.522 1.445 3.91 0 5.43h0zm-4.67-.61c1.1 1.095 2.876 1.095 3.975 0 1.08-1.191 1.08-3.008 0-4.199-1.099-1.095-2.875-1.095-3.974 0-1.08 1.191-1.08 3.008 0 4.198h0zm7.072 1.561V8.542h1.146l3.56 5.7v-5.7h.939v7.322h-.975l-3.719-5.967v5.967h-.951z"/>
        <g fill-rule="nonzero">
            <path fill="url(#prefix__a)" d="M.943.659C.545 1.136.345 1.747.382 2.367v26.994c-.037.62.163 1.232.56 1.709l.086.085 15.106-15.108v-.353L1.028.574.943.659z" transform="translate(11.786 8.542)"/>
            <path fill="url(#prefix__b)" d="M21.133 21.087l-4.999-5.04v-.353l4.999-5.053.11.061 5.986 3.405c1.707.964 1.707 2.55 0 3.527l-5.962 3.392-.134.061z" transform="translate(11.786 8.542)"/>
            <path fill="url(#prefix__c)" d="M21.28 21.014l-5.146-5.15L.943 31.07c.718.631 1.783.662 2.536.073l17.813-10.129" transform="translate(11.786 8.542)"/>
            <path fill="url(#prefix__d)" d="M21.28 10.715L3.466.585C2.714-.002 1.648.028.93.66l15.203 15.205 5.145-5.15z" transform="translate(11.786 8.542)"/>
            <path fill="#000" d="M21.133 20.904L3.467 30.972c-.723.541-1.716.541-2.439 0l-.085.086.085.085c.722.545 1.717.545 2.439 0l17.812-10.129-.146-.11z" opacity=".2" transform="translate(11.786 8.542)"/>
            <path fill="#000" d="M.943 30.899c-.398-.477-.598-1.088-.561-1.708v.183c-.037.62.163 1.23.56 1.708l.086-.085-.085-.098zm26.286-13.448l-6.096 3.453.11.11 5.986-3.392c.691-.325 1.156-.996 1.22-1.758-.14.69-.59 1.276-1.22 1.587z" opacity=".12" transform="translate(11.786 8.542)"/>
            <path fill="#FFF" d="M3.467.757l23.762 13.521c.63.311 1.08.897 1.22 1.586-.064-.762-.529-1.432-1.22-1.757L3.467.586C1.76-.378.37.427.37 2.38v.183C.406.598 1.772-.207 3.467.757z" opacity=".25" transform="translate(11.786 8.542)"/>
        </g>
    </g>
</svg>
